<svg xmlns="http://www.w3.org/2000/svg" xmlns:xlink="http://www.w3.org/1999/xlink" width="500" zoomAndPan="magnify" viewBox="0 0 375 374.999991" height="500" preserveAspectRatio="xMidYMid meet" version="1.0"><defs><g/><clipPath id="102457fb8e"><path d="M 32.746094 123 L 124.996094 123 L 124.996094 272.902344 L 32.746094 272.902344 Z M 32.746094 123 " clip-rule="nonzero"/></clipPath><clipPath id="f83203203b"><rect x="0" width="338" y="0" height="132"/></clipPath></defs><rect x="-37.5" width="450" fill="#ffffff" y="-37.499999" height="449.999989" fill-opacity="1"/><rect x="-37.5" width="450" fill="#000000" y="-37.499999" height="449.999989" fill-opacity="1"/><g clip-path="url(#102457fb8e)"><path fill="#ffffff" d="M 107.886719 176.101562 L 123.8125 146.988281 C 123.859375 146.917969 124.902344 145.273438 124.222656 143.4375 C 123.648438 141.882812 122.042969 140.707031 119.519531 139.96875 L 110.824219 135.550781 L 110.796875 135.804688 L 110.042969 135.730469 L 110.097656 135.183594 L 99.160156 129.628906 C 99.050781 129.550781 96.410156 127.828125 94.074219 128.476562 C 92.996094 128.773438 92.167969 129.519531 91.613281 130.683594 C 91.210938 131.53125 90.371094 133.199219 89.28125 135.316406 C 89.261719 135.351562 89.246094 135.390625 89.226562 135.429688 C 89.21875 135.441406 89.214844 135.453125 89.207031 135.464844 C 89.179688 135.515625 89.15625 135.5625 89.132812 135.609375 C 89.0625 135.753906 88.988281 135.890625 88.914062 136.03125 C 88.898438 136.066406 88.878906 136.105469 88.863281 136.140625 C 88.714844 136.425781 88.5625 136.71875 88.40625 137.019531 C 88.371094 137.089844 88.332031 137.164062 88.296875 137.234375 C 88.238281 137.34375 88.183594 137.457031 88.121094 137.574219 C 88.09375 137.625 88.074219 137.671875 88.046875 137.722656 C 88.027344 137.761719 88.003906 137.800781 87.984375 137.84375 C 87.96875 137.878906 87.949219 137.90625 87.9375 137.941406 L 87.933594 137.941406 C 87.894531 138.007812 87.859375 138.082031 87.824219 138.152344 C 87.796875 138.203125 87.769531 138.253906 87.742188 138.308594 C 87.742188 138.308594 87.738281 138.3125 87.738281 138.3125 C 87.738281 138.316406 87.738281 138.320312 87.734375 138.328125 C 87.617188 138.554688 87.5 138.78125 87.378906 139.015625 C 86.785156 140.164062 86.160156 141.375 85.523438 142.597656 C 85.523438 142.601562 85.519531 142.601562 85.519531 142.605469 C 85.453125 142.824219 85.371094 143.019531 85.222656 143.183594 C 85.222656 143.1875 85.222656 143.1875 85.222656 143.191406 C 85.21875 143.191406 85.21875 143.191406 85.21875 143.191406 L 85.210938 143.199219 C 84.691406 144.203125 84.160156 145.21875 83.640625 146.226562 C 83.609375 146.28125 83.578125 146.34375 83.546875 146.398438 C 83.3125 146.851562 83.078125 147.304688 82.847656 147.75 C 82.828125 147.78125 82.808594 147.816406 82.792969 147.851562 C 82.753906 147.921875 82.722656 147.992188 82.683594 148.058594 C 82.597656 148.226562 82.507812 148.390625 82.425781 148.558594 C 82.417969 148.566406 82.414062 148.578125 82.410156 148.585938 C 82.390625 148.617188 82.375 148.652344 82.359375 148.691406 C 82.167969 149.050781 81.980469 149.402344 81.796875 149.753906 C 81.78125 149.789062 81.765625 149.820312 81.746094 149.855469 C 79.632812 153.90625 77.851562 157.308594 77.226562 158.5 C 76.394531 157.703125 75.632812 157.238281 75.09375 157.464844 C 74.261719 157.816406 74.234375 159.359375 75 162.609375 C 74.972656 162.972656 74.875 164.730469 75.300781 167.074219 L 75.222656 167.054688 L 74.085938 172.078125 C 72.371094 171.507812 71.359375 170.824219 71.355469 170.253906 L 73.117188 151.585938 L 73.132812 151.453125 C 73.132812 151.453125 73.972656 142.542969 73.972656 142.542969 C 73.972656 142.542969 74.402344 137.964844 74.402344 137.964844 L 74.402344 137.941406 C 74.402344 137.941406 74.714844 134.714844 74.714844 134.714844 L 74.714844 134.707031 L 74.734375 134.445312 L 75.195312 129.566406 C 75.195312 127.871094 77.40625 126.5 79.195312 126.496094 L 107.113281 129.609375 C 108.898438 129.609375 110.28125 131.675781 110.28125 133.414062 L 110.101562 135.179688 L 110.828125 135.546875 L 111.039062 133.453125 C 111.039062 132.367188 110.621094 131.214844 109.925781 130.332031 C 109.230469 129.457031 108.261719 128.847656 107.15625 128.847656 L 94.132812 127.398438 C 94.246094 126.839844 94.367188 125.496094 93.410156 124.472656 C 92.148438 123.125 89.539062 122.894531 85.648438 123.808594 L 61.730469 129.882812 C 61.5 129.894531 60.640625 129.996094 60.007812 130.796875 C 59.515625 131.429688 59.292969 132.3125 59.347656 133.449219 L 59.214844 133.15625 L 49.769531 137.421875 C 49.71875 137.4375 48.582031 137.875 48.089844 139.242188 C 47.5625 140.710938 47.976562 142.636719 49.328125 144.960938 C 52.503906 150.421875 65.75 173.859375 66.597656 175.363281 C 66.765625 176.382812 67.273438 177.640625 68.582031 178.851562 C 71.03125 181.125 74.214844 183.582031 74.824219 184.046875 C 74.945312 184.464844 75.386719 185.789062 76.4375 187.433594 C 74.742188 190.265625 73.191406 192.277344 72.539062 193.082031 C 68.898438 187.839844 65.304688 183.828125 64.71875 183.179688 C 63.773438 179.597656 60.992188 176.980469 60.851562 176.84375 C 59.488281 175.796875 58.519531 175.480469 57.878906 175.902344 C 56.910156 176.539062 57.367188 178.535156 57.492188 179 L 58.433594 180.945312 C 58.230469 181.765625 57.359375 185.789062 59.355469 187.6875 C 61.113281 189.367188 65.351562 196.554688 66.289062 198.164062 C 63.820312 199.691406 48.664062 209.175781 46.1875 212.84375 C 43.550781 216.742188 40.621094 230.277344 40.492188 230.871094 L 39.8125 235.339844 C 39.144531 239.71875 32.902344 256.175781 32.839844 256.339844 L 33.550781 256.613281 C 33.804688 255.929688 39.886719 239.910156 40.5625 235.453125 L 41.238281 231.011719 C 41.246094 230.96875 41.496094 229.832031 41.90625 228.128906 C 42.585938 227.234375 50.859375 216.683594 61.34375 214.5 L 61.1875 213.753906 C 52.292969 215.609375 44.984375 223.285156 42.324219 226.40625 C 43.433594 221.988281 45.210938 215.648438 46.816406 213.269531 C 49.132812 209.847656 63.714844 200.664062 66.535156 198.90625 C 67.363281 204.019531 64.613281 216.535156 64.585938 216.664062 L 65.328125 216.832031 C 65.445312 216.28125 68.242188 203.558594 67.230469 198.472656 L 67.316406 198.421875 L 67.132812 198.101562 C 66.921875 197.734375 61.933594 189.09375 59.875 187.136719 C 58.027344 185.375 59.191406 181.046875 59.207031 181.007812 L 59.246094 180.867188 L 58.195312 178.703125 C 58.011719 177.960938 57.921875 176.785156 58.300781 176.535156 C 58.417969 176.460938 58.902344 176.300781 60.359375 177.425781 C 60.386719 177.453125 63.136719 180.046875 64.007812 183.460938 L 64.027344 183.550781 L 64.09375 183.621094 C 64.246094 183.785156 79.042969 200.105469 80.058594 211.308594 L 80.8125 211.242188 C 80.535156 208.179688 79.296875 204.792969 77.617188 201.460938 C 78.210938 200.808594 79.925781 198.597656 81.957031 192.953125 C 82.097656 193.042969 82.242188 193.132812 82.386719 193.226562 L 82.789062 192.574219 C 76.929688 188.96875 75.535156 183.777344 75.527344 183.722656 L 75.492188 183.59375 L 75.386719 183.515625 C 75.351562 183.488281 71.777344 180.777344 69.101562 178.292969 C 66.609375 175.980469 67.394531 173.554688 67.429688 173.453125 L 67.496094 173.265625 L 65.886719 171.027344 C 65.652344 170.136719 65.738281 169.71875 65.894531 169.625 C 66.746094 169.101562 70.773438 171.992188 74.023438 174.96875 L 74.09375 175.015625 C 79.664062 178.25 89.601562 189.003906 90.785156 190.292969 C 90.609375 191.902344 89.273438 204.28125 89.636719 211.035156 C 89.976562 217.371094 88.691406 217.890625 88.722656 217.890625 L 88.5625 217.921875 C 77.757812 222.941406 62.71875 236.242188 62.566406 236.378906 L 62.476562 236.457031 L 54.160156 272.710938 L 54.902344 272.882812 L 63.164062 236.863281 C 64.433594 235.75 78.570312 223.421875 88.832031 218.636719 C 88.960938 218.609375 89.164062 218.535156 89.386719 218.300781 C 90.25 217.394531 90.601562 214.898438 90.402344 211.085938 C 90.875 209.933594 95.160156 199.183594 94.34375 189.53125 L 94.429688 189.53125 C 94.425781 189.46875 94.289062 186.945312 94.105469 183.832031 L 97.800781 186.15625 C 97.855469 186.191406 98.898438 186.75 100.152344 186.75 C 100.613281 186.75 101.101562 186.675781 101.578125 186.472656 C 102.71875 185.988281 103.519531 184.90625 103.972656 183.257812 L 106.492188 178.65625 C 106.457031 178.738281 106.429688 178.820312 106.40625 178.910156 L 106.398438 178.945312 C 106.328125 179.246094 106.347656 179.535156 106.464844 179.769531 C 106.550781 179.945312 106.679688 180.054688 106.820312 180.089844 L 106.832031 180.089844 C 106.925781 180.105469 107.070312 180.101562 107.226562 179.964844 C 107.484375 179.738281 107.65625 179.414062 107.710938 179.0625 C 107.746094 178.808594 107.726562 178.542969 107.699219 178.285156 C 107.6875 178.171875 107.675781 178.054688 107.671875 177.945312 L 107.632812 177.097656 L 107.609375 177.097656 L 107.738281 176.625 L 107.742188 176.625 C 107.859375 176.617188 107.96875 176.535156 107.992188 176.414062 C 108.019531 176.304688 107.96875 176.191406 107.882812 176.132812 L 107.875 176.132812 C 107.875 176.132812 107.886719 176.101562 107.886719 176.101562 L 107.890625 176.101562 Z M 85.828125 124.550781 C 90.296875 123.503906 92.113281 124.210938 92.847656 124.988281 C 93.609375 125.804688 93.445312 126.953125 93.367188 127.316406 L 80.558594 125.890625 Z M 81.308594 192.515625 C 79.480469 197.640625 77.90625 199.917969 77.238281 200.734375 C 75.96875 198.308594 74.484375 195.925781 72.984375 193.738281 C 73.53125 193.074219 75.125 191.058594 76.898438 188.132812 C 77.886719 189.535156 79.304688 191.097656 81.308594 192.515625 Z M 108.800781 172.847656 L 108.871094 172.597656 L 108.875 172.597656 C 108.898438 172.597656 108.917969 172.59375 108.941406 172.585938 Z M 83.691406 147.769531 C 83.71875 147.714844 83.75 147.660156 83.777344 147.613281 C 87.308594 140.828125 91.257812 133.203125 92.300781 131.015625 C 92.757812 130.054688 93.421875 129.445312 94.273438 129.210938 C 96.277344 128.652344 98.71875 130.246094 98.78125 130.285156 L 119.242188 140.671875 C 121.578125 141.363281 123.015625 142.378906 123.503906 143.691406 C 124.054688 145.171875 123.183594 146.5625 123.160156 146.601562 L 109.160156 172.183594 C 109.140625 172.113281 109.101562 172.054688 109.035156 172.015625 L 109.367188 170.839844 L 109.65625 170.722656 L 109.40625 170.6875 L 109.300781 170.675781 L 109.289062 170.675781 C 105.03125 170.101562 101.308594 167.867188 99.328125 164.683594 C 97.394531 161.585938 97.085938 157.507812 98.519531 154.042969 C 99.410156 151.890625 100.984375 149.96875 102.964844 148.574219 C 103.210938 148.675781 103.457031 148.765625 103.703125 148.851562 C 103.710938 148.957031 103.785156 149.054688 103.898438 149.074219 C 103.992188 149.097656 104.085938 149.058594 104.140625 148.992188 C 104.515625 149.105469 104.882812 149.195312 105.238281 149.273438 L 104.90625 150.523438 C 104.761719 150.515625 104.625 150.613281 104.597656 150.757812 C 104.566406 150.894531 104.632812 151.03125 104.753906 151.09375 L 104.449219 152.230469 C 104.339844 152.238281 104.246094 152.316406 104.222656 152.425781 C 104.199219 152.53125 104.246094 152.632812 104.324219 152.683594 L 103.917969 154.207031 C 103.839844 154.222656 103.773438 154.285156 103.753906 154.367188 C 103.734375 154.445312 103.765625 154.523438 103.820312 154.574219 L 103.441406 155.984375 C 103.300781 155.988281 103.171875 156.089844 103.136719 156.238281 C 103.105469 156.375 103.167969 156.511719 103.28125 156.582031 L 102.59375 159.164062 C 102.523438 159.175781 102.464844 159.230469 102.449219 159.304688 C 102.433594 159.375 102.457031 159.445312 102.503906 159.488281 L 102.15625 160.792969 C 102.15625 160.792969 102.105469 160.847656 102.089844 160.871094 C 102.070312 160.894531 102.058594 160.910156 102.050781 160.917969 L 101.960938 161.066406 C 101.894531 161.175781 101.824219 161.285156 101.757812 161.398438 C 101.703125 161.484375 101.648438 161.570312 101.589844 161.652344 C 101.402344 161.945312 101.203125 162.242188 101.109375 162.59375 L 101.101562 162.632812 C 101.03125 162.925781 101.054688 163.21875 101.171875 163.453125 C 101.253906 163.625 101.382812 163.738281 101.527344 163.769531 L 101.539062 163.769531 C 101.632812 163.792969 101.777344 163.785156 101.925781 163.648438 C 102.1875 163.417969 102.363281 163.101562 102.414062 162.746094 C 102.453125 162.488281 102.429688 162.222656 102.402344 161.96875 C 102.390625 161.851562 102.382812 161.738281 102.378906 161.625 L 102.34375 160.820312 L 102.6875 159.535156 C 102.753906 159.519531 102.8125 159.464844 102.828125 159.394531 C 102.847656 159.324219 102.824219 159.257812 102.773438 159.210938 L 103.464844 156.628906 C 103.609375 156.625 103.738281 156.523438 103.773438 156.378906 C 103.800781 156.242188 103.738281 156.101562 103.625 156.03125 L 104.003906 154.625 C 104.082031 154.609375 104.148438 154.546875 104.167969 154.460938 C 104.183594 154.382812 104.15625 154.300781 104.101562 154.253906 L 104.507812 152.726562 C 104.601562 152.707031 104.683594 152.636719 104.707031 152.535156 C 104.726562 152.441406 104.695312 152.351562 104.625 152.292969 L 104.941406 151.125 C 105.058594 151.101562 105.15625 151.015625 105.183594 150.890625 C 105.210938 150.777344 105.167969 150.660156 105.078125 150.589844 L 105.425781 149.304688 C 106.289062 149.472656 107.105469 149.527344 107.871094 149.511719 C 107.898438 149.578125 107.964844 149.636719 108.042969 149.652344 C 108.164062 149.679688 108.285156 149.609375 108.320312 149.492188 C 109.285156 149.429688 110.164062 149.253906 110.929688 149.023438 C 110.976562 149.105469 111.058594 149.171875 111.160156 149.191406 C 111.355469 149.234375 111.554688 149.113281 111.59375 148.917969 C 111.605469 148.875 111.605469 148.832031 111.601562 148.796875 C 112.902344 148.320312 113.800781 147.734375 114.179688 147.460938 L 114.109375 147.820312 C 114.050781 147.84375 114.007812 147.890625 113.992188 147.953125 C 113.976562 148.015625 114 148.082031 114.046875 148.125 L 113.902344 148.832031 C 113.789062 148.839844 113.6875 148.921875 113.664062 149.039062 C 113.636719 149.160156 113.695312 149.28125 113.800781 149.332031 L 113.515625 150.765625 C 113.433594 150.785156 113.367188 150.84375 113.34375 150.929688 C 113.324219 151.023438 113.363281 151.113281 113.433594 151.160156 L 113.023438 153.195312 C 112.9375 153.214844 112.863281 153.28125 112.847656 153.371094 C 112.824219 153.46875 112.859375 153.5625 112.9375 153.613281 L 112.371094 156.433594 C 112.402344 156.425781 112.4375 156.425781 112.472656 156.433594 C 112.503906 156.441406 112.527344 156.453125 112.554688 156.472656 L 113.121094 153.652344 C 113.207031 153.632812 113.28125 153.570312 113.300781 153.472656 C 113.320312 153.378906 113.285156 153.285156 113.207031 153.234375 L 113.617188 151.199219 C 113.699219 151.179688 113.765625 151.117188 113.78125 151.03125 C 113.804688 150.9375 113.769531 150.851562 113.699219 150.796875 L 113.992188 149.351562 C 114.082031 149.324219 114.15625 149.253906 114.179688 149.15625 C 114.203125 149.054688 114.160156 148.949219 114.082031 148.886719 L 114.230469 148.160156 C 114.285156 148.140625 114.332031 148.09375 114.347656 148.03125 C 114.359375 147.964844 114.339844 147.898438 114.289062 147.859375 L 114.394531 147.351562 C 114.421875 147.359375 114.453125 147.367188 114.480469 147.375 L 114.53125 147.195312 C 114.496094 147.1875 114.464844 147.175781 114.433594 147.160156 L 114.46875 146.992188 L 114.335938 147.101562 C 114.070312 146.9375 113.808594 146.601562 113.574219 146.296875 C 113.441406 146.125 113.316406 145.960938 113.203125 145.847656 C 112.648438 145.289062 112.046875 144.769531 111.417969 144.300781 C 110.144531 143.355469 108.75 142.605469 107.269531 142.082031 C 103.238281 140.660156 98.621094 140.972656 94.601562 142.949219 C 94.382812 143.054688 94.167969 143.167969 93.957031 143.285156 C 93.921875 143.300781 93.894531 143.320312 93.863281 143.339844 C 93.335938 143.625 92.828125 143.945312 92.351562 144.285156 C 87.96875 147.386719 85.515625 152.957031 86.089844 158.472656 C 86.246094 159.996094 86.640625 161.480469 87.230469 162.878906 C 86.71875 165.019531 86.257812 168.011719 86.339844 171.660156 C 83.464844 166.941406 81.519531 164.128906 81.496094 164.09375 C 80.683594 162.820312 79.191406 160.601562 77.78125 159.074219 C 78.367188 157.960938 80.890625 153.140625 83.691406 147.769531 Z M 108.140625 170.816406 C 108.101562 170.71875 108.019531 170.644531 107.910156 170.617188 C 107.738281 170.578125 107.558594 170.6875 107.515625 170.863281 C 107.273438 170.878906 107.035156 170.886719 106.804688 170.886719 C 106.773438 170.753906 106.671875 170.648438 106.53125 170.617188 C 106.347656 170.574219 106.164062 170.683594 106.109375 170.863281 C 105.527344 170.828125 104.992188 170.746094 104.507812 170.609375 C 104.496094 170.503906 104.425781 170.421875 104.320312 170.394531 C 104.226562 170.375 104.132812 170.410156 104.078125 170.476562 C 103.5 170.273438 103 169.992188 102.585938 169.636719 C 102.296875 169.386719 102.078125 169.121094 101.90625 168.855469 C 101.925781 168.820312 101.945312 168.789062 101.957031 168.746094 C 101.992188 168.597656 101.898438 168.457031 101.753906 168.421875 C 101.722656 168.414062 101.691406 168.414062 101.664062 168.421875 C 101.457031 167.980469 101.378906 167.582031 101.347656 167.347656 C 103.113281 168.917969 105.390625 170.0625 107.910156 170.621094 C 108.148438 170.679688 108.386719 170.722656 108.628906 170.769531 C 108.460938 170.789062 108.300781 170.804688 108.140625 170.820312 Z M 108.523438 170.964844 C 108.386719 171.019531 108.246094 171.070312 108.105469 171.125 C 108.128906 171.089844 108.148438 171.050781 108.15625 171.011719 L 108.15625 171.003906 C 108.15625 171.003906 108.15625 171 108.15625 171 C 108.277344 170.992188 108.398438 170.980469 108.519531 170.964844 Z M 100.535156 171.257812 L 100.929688 169.210938 C 101.058594 169.179688 101.164062 169.078125 101.195312 168.941406 C 101.226562 168.800781 101.167969 168.652344 101.054688 168.574219 L 101.222656 167.714844 C 101.269531 167.941406 101.351562 168.214844 101.492188 168.503906 C 101.460938 168.539062 101.4375 168.582031 101.429688 168.628906 C 101.394531 168.773438 101.484375 168.921875 101.632812 168.953125 C 101.652344 168.957031 101.671875 168.960938 101.691406 168.960938 C 101.703125 168.960938 101.722656 168.957031 101.742188 168.953125 C 101.921875 169.230469 102.15625 169.511719 102.460938 169.773438 C 102.894531 170.152344 103.417969 170.449219 104.019531 170.660156 C 104.03125 170.765625 104.105469 170.847656 104.210938 170.875 C 104.304688 170.894531 104.394531 170.859375 104.453125 170.792969 C 104.949219 170.925781 105.5 171.015625 106.101562 171.050781 C 106.132812 171.183594 106.230469 171.289062 106.375 171.324219 C 106.5625 171.367188 106.746094 171.253906 106.800781 171.070312 C 107.039062 171.070312 107.28125 171.0625 107.53125 171.046875 C 107.566406 171.148438 107.644531 171.222656 107.746094 171.253906 C 105.527344 172.042969 103 172.652344 100.316406 172.386719 L 100.441406 171.734375 C 100.542969 171.71875 100.632812 171.640625 100.652344 171.535156 C 100.679688 171.421875 100.628906 171.3125 100.535156 171.257812 Z M 95.296875 144.191406 C 95.238281 144.175781 95.175781 144.1875 95.125 144.21875 C 94.582031 143.828125 94.25 143.554688 94.101562 143.417969 C 94.292969 143.316406 94.488281 143.214844 94.6875 143.117188 C 98.632812 141.175781 103.164062 140.855469 107.125 142.230469 L 106.808594 143.417969 C 106.671875 143.425781 106.550781 143.519531 106.519531 143.660156 C 106.488281 143.789062 106.550781 143.917969 106.65625 143.984375 L 106.1875 145.730469 C 106.066406 145.738281 105.960938 145.824219 105.933594 145.953125 C 105.90625 146.066406 105.957031 146.183594 106.050781 146.25 L 105.882812 146.863281 C 105.386719 147.019531 104.910156 147.214844 104.453125 147.449219 C 103.925781 147.71875 103.421875 148.023438 102.9375 148.359375 C 102.273438 148.085938 101.65625 147.816406 101.078125 147.550781 C 101.097656 147.398438 100.992188 147.246094 100.839844 147.210938 C 100.726562 147.1875 100.617188 147.226562 100.542969 147.304688 C 99.433594 146.78125 98.480469 146.285156 97.679688 145.832031 C 97.695312 145.703125 97.613281 145.582031 97.484375 145.554688 C 97.40625 145.535156 97.332031 145.554688 97.273438 145.597656 C 96.546875 145.175781 95.957031 144.796875 95.484375 144.472656 C 95.511719 144.34375 95.425781 144.21875 95.296875 144.191406 Z M 105.519531 148.230469 L 105.289062 149.085938 C 104.933594 149.019531 104.570312 148.925781 104.199219 148.8125 C 104.1875 148.707031 104.113281 148.617188 104.007812 148.589844 C 103.914062 148.574219 103.820312 148.605469 103.765625 148.675781 C 103.558594 148.601562 103.355469 148.527344 103.144531 148.445312 C 103.589844 148.136719 104.054688 147.863281 104.539062 147.617188 C 104.949219 147.40625 105.378906 147.226562 105.828125 147.078125 L 105.652344 147.734375 C 105.527344 147.730469 105.414062 147.8125 105.386719 147.941406 C 105.359375 148.058594 105.414062 148.175781 105.519531 148.230469 Z M 105.707031 148.253906 C 105.800781 148.234375 105.878906 148.15625 105.902344 148.054688 C 105.925781 147.960938 105.890625 147.867188 105.828125 147.804688 L 106.039062 147.015625 C 107.476562 146.578125 109.097656 146.46875 110.949219 146.667969 C 111.90625 146.769531 112.917969 146.964844 114.113281 147.277344 C 113.777344 147.527344 112.867188 148.132812 111.535156 148.621094 C 111.484375 148.554688 111.410156 148.5 111.320312 148.480469 C 111.121094 148.4375 110.929688 148.5625 110.882812 148.757812 C 110.878906 148.785156 110.878906 148.816406 110.878906 148.839844 C 110.121094 149.066406 109.253906 149.246094 108.304688 149.300781 C 108.273438 149.246094 108.214844 149.199219 108.144531 149.183594 C 108.03125 149.160156 107.917969 149.21875 107.871094 149.320312 C 107.125 149.339844 106.320312 149.285156 105.476562 149.125 Z M 110.972656 146.480469 C 109.136719 146.28125 107.527344 146.386719 106.097656 146.800781 L 106.230469 146.296875 C 106.351562 146.289062 106.460938 146.199219 106.484375 146.074219 C 106.511719 145.957031 106.460938 145.84375 106.371094 145.78125 L 106.835938 144.035156 C 106.972656 144.03125 107.09375 143.9375 107.125 143.796875 C 107.15625 143.664062 107.097656 143.535156 106.988281 143.46875 L 107.300781 142.296875 C 108.730469 142.808594 110.074219 143.535156 111.308594 144.453125 C 111.929688 144.914062 112.523438 145.429688 113.070312 145.976562 C 113.175781 146.085938 113.296875 146.246094 113.425781 146.410156 C 113.59375 146.625 113.777344 146.859375 113.964844 147.046875 C 112.847656 146.757812 111.882812 146.578125 110.972656 146.480469 Z M 102.230469 162.71875 C 102.183594 163.019531 102.03125 163.308594 101.808594 163.507812 C 101.726562 163.578125 101.648438 163.601562 101.574219 163.589844 C 101.480469 163.578125 101.398438 163.488281 101.339844 163.367188 C 101.242188 163.175781 101.226562 162.929688 101.285156 162.671875 L 101.292969 162.640625 C 101.375 162.320312 101.566406 162.035156 101.746094 161.757812 C 101.808594 161.671875 101.863281 161.585938 101.917969 161.496094 C 101.984375 161.382812 102.050781 161.277344 102.121094 161.164062 L 102.164062 161.09375 L 102.1875 161.632812 C 102.195312 161.75 102.207031 161.867188 102.21875 161.988281 C 102.242188 162.230469 102.265625 162.484375 102.230469 162.71875 Z M 89.097656 159.503906 L 89.128906 159.402344 C 89.46875 157.078125 89.792969 156.488281 89.910156 156.339844 C 90.566406 156.9375 91.53125 161.835938 92.0625 166.152344 C 92.0625 166.1875 92.164062 169.707031 92.550781 172.890625 C 92.78125 174.789062 93.132812 180.390625 93.382812 184.582031 C 93.070312 183.609375 92.679688 182.683594 92.191406 181.796875 C 90.390625 178.484375 88.667969 175.519531 87.15625 173.007812 C 86.683594 164.878906 89.074219 159.554688 89.097656 159.503906 Z M 75.644531 168.625 C 75.996094 169.964844 76.523438 171.417969 77.3125 172.867188 C 77.554688 173.308594 77.769531 173.71875 77.960938 174.101562 L 75.546875 172.785156 C 75.546875 172.785156 75.433594 172.722656 75.433594 172.722656 L 74.929688 172.445312 L 74.953125 172.382812 L 74.808594 172.328125 Z M 65.496094 168.976562 C 64.671875 169.480469 65.046875 170.847656 65.171875 171.292969 L 66.652344 173.402344 C 66.625 173.496094 66.597656 173.628906 66.574219 173.789062 C 63.664062 168.632812 52.820312 149.457031 49.984375 144.582031 C 48.773438 142.5 48.363281 140.75 48.796875 139.519531 C 49.160156 138.480469 49.996094 138.148438 50.054688 138.125 L 59.375 133.917969 C 59.433594 134.433594 59.539062 135 59.699219 135.609375 C 59.8125 136.042969 59.957031 136.644531 60.144531 137.382812 C 60.039062 137.171875 59.921875 136.96875 59.800781 136.769531 C 59.609375 136.449219 59.410156 136.136719 59.238281 135.808594 C 59.0625 135.484375 58.914062 135.140625 58.828125 134.777344 C 58.902344 135.144531 59.03125 135.496094 59.195312 135.832031 C 59.355469 136.167969 59.539062 136.492188 59.714844 136.816406 C 59.890625 137.144531 60.058594 137.472656 60.179688 137.816406 C 60.300781 138.160156 60.382812 138.519531 60.398438 138.878906 L 60.511719 138.871094 C 60.59375 139.203125 60.679688 139.554688 60.765625 139.921875 L 60.664062 139.964844 C 60.664062 139.964844 58.296875 140.703125 61.171875 143.796875 C 61.171875 143.796875 61.949219 144.644531 61.109375 145.210938 L 59.917969 146.316406 C 59.917969 146.316406 59.070312 146.960938 59.832031 148.578125 C 60.59375 150.191406 61.203125 151.660156 61.042969 152.980469 C 61.042969 152.980469 61.96875 157.042969 61.359375 157.382812 C 61.359375 157.382812 61.191406 158.425781 61.078125 158.460938 C 61.078125 158.460938 61.4375 158.378906 61.578125 157.941406 C 61.578125 157.941406 61.980469 159.101562 62.441406 159.675781 C 62.441406 159.675781 62.742188 159.835938 62.855469 159.761719 C 62.855469 159.761719 63.152344 159.683594 63.203125 159.558594 C 63.203125 159.558594 63.574219 159.4375 63.492188 159.332031 L 63.296875 158.710938 C 63.296875 158.710938 63.421875 158.511719 63.40625 158.441406 C 63.390625 158.371094 62.726562 156.53125 62.726562 156.53125 C 62.726562 156.53125 62.746094 155.191406 62.738281 154.316406 C 62.734375 153.445312 62.203125 150.933594 62.203125 150.933594 C 62.203125 150.933594 62.414062 150.507812 63.277344 153.800781 C 63.917969 156.257812 64.671875 157.636719 65.015625 158.179688 C 65.042969 158.160156 65.070312 158.136719 65.097656 158.121094 C 65.070312 158.140625 65.042969 158.164062 65.015625 158.183594 C 65.128906 158.363281 65.195312 158.453125 65.195312 158.453125 L 65.269531 158.53125 C 65.269531 158.53125 65.382812 158.664062 65.382812 158.664062 C 65.40625 158.65625 65.425781 158.648438 65.449219 158.636719 C 65.429688 158.648438 65.410156 158.65625 65.386719 158.667969 C 65.371094 158.675781 65.359375 158.679688 65.34375 158.683594 C 65.332031 158.691406 65.316406 158.695312 65.304688 158.699219 C 65.304688 158.699219 65.441406 159.257812 65.441406 159.257812 C 65.507812 159.25 65.566406 159.234375 65.628906 159.214844 C 65.566406 159.238281 65.507812 159.253906 65.441406 159.269531 C 65.488281 159.445312 65.527344 159.625 65.570312 159.800781 C 65.585938 159.804688 65.605469 159.804688 65.621094 159.808594 C 65.605469 159.808594 65.585938 159.804688 65.570312 159.804688 C 66.617188 164.160156 67.496094 167.800781 67.867188 169.386719 C 66.871094 168.878906 66.007812 168.664062 65.496094 168.976562 Z M 73.550781 173.523438 C 72.296875 172.429688 70.4375 170.902344 68.777344 169.890625 C 68.203125 167.519531 61.722656 140.4375 60.433594 135.417969 C 59.9375 133.496094 59.992188 132.066406 60.597656 131.28125 C 61.078125 130.660156 61.75 130.648438 61.777344 130.648438 L 61.824219 130.648438 L 75.59375 127.152344 C 74.894531 127.796875 74.433594 128.621094 74.433594 129.535156 L 73.550781 138.867188 C 72.378906 143.289062 69.492188 146.636719 64.859375 149.011719 C 67.773438 149.210938 70.265625 149.898438 72.394531 151.140625 L 70.59375 170.222656 C 70.59375 171.277344 71.8125 172.1875 74.210938 172.921875 L 74.542969 173.105469 Z M 74.503906 174.382812 C 74.40625 174.289062 74.296875 174.191406 74.175781 174.082031 L 75.394531 173.570312 L 78.503906 175.265625 C 79.109375 176.640625 79.324219 177.511719 79.394531 178.019531 C 77.640625 176.523438 75.945312 175.222656 74.503906 174.382812 Z M 90.335938 209.082031 C 90.257812 201.695312 91.542969 190.335938 91.558594 190.214844 L 91.574219 190.039062 L 91.460938 189.914062 C 91.136719 189.558594 85.519531 183.386719 80.164062 178.691406 C 80.253906 178.046875 80.09375 176.378906 77.976562 172.503906 C 75.351562 167.679688 75.753906 162.664062 75.761719 162.617188 L 75.761719 162.550781 C 75.761719 162.550781 75.75 162.496094 75.75 162.496094 C 74.796875 158.472656 75.382812 158.171875 75.390625 158.167969 C 75.996094 157.921875 78.539062 160.878906 80.863281 164.515625 C 80.910156 164.585938 85.773438 171.617188 91.527344 182.160156 C 96.148438 190.628906 92.054688 204.230469 90.335938 209.082031 Z M 107.519531 179.039062 C 107.476562 179.34375 107.320312 179.632812 107.097656 179.828125 C 107.019531 179.898438 106.941406 179.925781 106.867188 179.910156 C 106.785156 179.890625 106.691406 179.8125 106.628906 179.6875 C 106.535156 179.496094 106.515625 179.25 106.574219 178.996094 L 106.582031 178.960938 C 106.667969 178.640625 106.855469 178.355469 107.039062 178.078125 C 107.097656 177.992188 107.15625 177.902344 107.207031 177.816406 C 107.273438 177.707031 107.34375 177.597656 107.410156 177.488281 L 107.457031 177.414062 L 107.480469 177.957031 C 107.488281 178.074219 107.5 178.191406 107.507812 178.308594 C 107.53125 178.550781 107.554688 178.804688 107.519531 179.039062 Z M 106.753906 178.167969 L 107.492188 176.824219 L 107.390625 177.179688 C 107.390625 177.179688 107.386719 177.191406 107.382812 177.195312 C 107.367188 177.210938 107.351562 177.230469 107.34375 177.242188 L 107.253906 177.390625 C 107.183594 177.5 107.117188 177.609375 107.046875 177.71875 C 106.996094 177.804688 106.9375 177.890625 106.882812 177.976562 C 106.839844 178.039062 106.800781 178.105469 106.753906 178.167969 Z M 103.28125 182.9375 L 103.246094 183.019531 C 102.859375 184.457031 102.199219 185.382812 101.28125 185.777344 C 100.90625 185.933594 100.523438 185.996094 100.152344 185.996094 C 99.09375 185.996094 98.183594 185.507812 98.183594 185.507812 L 94.25 183.03125 L 94.070312 183.3125 C 93.828125 179.304688 93.519531 174.53125 93.308594 172.800781 C 92.925781 169.648438 92.824219 166.167969 92.820312 166.097656 C 92.230469 161.292969 91.242188 155.5625 89.910156 155.546875 L 89.898438 155.546875 C 89.316406 155.546875 88.835938 156.179688 88.382812 159.238281 C 88.265625 159.503906 87.773438 160.664062 87.304688 162.558594 C 86.777344 161.253906 86.425781 159.871094 86.277344 158.457031 C 85.707031 153.003906 88.132812 147.5 92.460938 144.4375 C 92.878906 144.140625 93.324219 143.855469 93.785156 143.59375 L 93.554688 144.359375 C 93.4375 144.367188 93.328125 144.453125 93.300781 144.574219 C 93.277344 144.6875 93.320312 144.796875 93.40625 144.863281 L 93.167969 145.667969 C 93.023438 145.667969 92.890625 145.769531 92.855469 145.914062 C 92.828125 146.046875 92.886719 146.179688 92.992188 146.253906 L 92.5 147.910156 C 92.394531 147.925781 92.3125 148 92.289062 148.101562 C 92.269531 148.191406 92.300781 148.28125 92.371094 148.339844 L 91.828125 150.152344 L 91.855469 150.160156 L 91.714844 150.382812 L 91.625 150.519531 C 91.523438 150.679688 91.417969 150.839844 91.367188 151.03125 L 91.359375 151.046875 C 91.324219 151.207031 91.339844 151.367188 91.398438 151.492188 C 91.445312 151.585938 91.515625 151.644531 91.589844 151.664062 L 91.597656 151.664062 C 91.648438 151.675781 91.722656 151.671875 91.808594 151.601562 C 91.949219 151.476562 92.042969 151.300781 92.070312 151.109375 C 92.09375 150.972656 92.078125 150.828125 92.070312 150.6875 C 92.0625 150.628906 92.054688 150.566406 92.054688 150.503906 L 92.039062 150.121094 L 92.554688 148.390625 C 92.652344 148.378906 92.738281 148.308594 92.761719 148.207031 C 92.78125 148.113281 92.746094 148.019531 92.679688 147.96875 L 93.175781 146.304688 C 93.320312 146.304688 93.449219 146.203125 93.484375 146.054688 C 93.515625 145.921875 93.457031 145.792969 93.351562 145.71875 L 93.589844 144.914062 C 93.710938 144.910156 93.820312 144.824219 93.847656 144.699219 C 93.875 144.585938 93.828125 144.476562 93.742188 144.410156 L 93.992188 143.570312 C 94.148438 143.707031 94.484375 143.988281 95.015625 144.371094 C 94.988281 144.503906 95.066406 144.632812 95.199219 144.660156 C 95.265625 144.675781 95.328125 144.660156 95.382812 144.628906 C 95.859375 144.953125 96.453125 145.335938 97.183594 145.761719 C 97.160156 145.894531 97.246094 146.019531 97.378906 146.042969 C 97.457031 146.0625 97.53125 146.039062 97.59375 145.996094 C 98.398438 146.453125 99.355469 146.953125 100.46875 147.472656 C 100.445312 147.632812 100.546875 147.777344 100.707031 147.816406 C 100.820312 147.839844 100.929688 147.800781 101 147.722656 C 101.550781 147.972656 102.136719 148.230469 102.757812 148.484375 C 100.796875 149.894531 99.238281 151.824219 98.351562 153.96875 C 96.894531 157.488281 97.210938 161.632812 99.171875 164.785156 C 99.710938 165.648438 100.375 166.441406 101.140625 167.15625 L 100.878906 168.511719 C 100.703125 168.496094 100.542969 168.609375 100.507812 168.789062 C 100.464844 168.96875 100.570312 169.148438 100.746094 169.203125 L 100.355469 171.21875 C 100.253906 171.238281 100.167969 171.3125 100.144531 171.417969 C 100.117188 171.53125 100.171875 171.640625 100.261719 171.699219 L 100.132812 172.367188 C 97.671875 172.085938 95.273438 171.210938 93.222656 169.867188 C 93.195312 169.929688 93.15625 169.980469 93.121094 170.035156 C 94.71875 171.078125 96.53125 171.84375 98.417969 172.269531 C 98.972656 172.390625 99.53125 172.488281 100.097656 172.546875 L 99.949219 173.335938 C 99.832031 173.351562 99.730469 173.4375 99.707031 173.558594 C 99.679688 173.683594 99.734375 173.808594 99.839844 173.867188 L 99.585938 175.203125 C 99.484375 175.21875 99.402344 175.296875 99.378906 175.398438 C 99.355469 175.507812 99.402344 175.617188 99.492188 175.675781 L 99.195312 177.214844 C 99.089844 177.230469 99 177.308594 98.972656 177.421875 C 98.949219 177.535156 99.003906 177.652344 99.101562 177.703125 L 98.851562 179 C 98.738281 178.996094 98.636719 179.066406 98.613281 179.179688 C 98.585938 179.292969 98.652344 179.410156 98.765625 179.449219 L 98.710938 179.730469 L 98.707031 179.730469 C 98.558594 179.738281 98.433594 179.84375 98.398438 179.988281 C 98.363281 180.148438 98.441406 180.304688 98.585938 180.367188 L 98.5625 180.488281 L 98.558594 180.488281 C 98.558594 180.488281 98.433594 180.699219 98.433594 180.699219 C 98.40625 180.746094 98.375 180.789062 98.347656 180.832031 C 98.25 180.980469 98.152344 181.132812 98.101562 181.3125 L 98.101562 181.332031 C 98.0625 181.484375 98.074219 181.628906 98.132812 181.746094 C 98.160156 181.800781 98.191406 181.84375 98.226562 181.867188 C 98.152344 181.886719 98.085938 181.949219 98.070312 182.03125 C 98.042969 182.144531 98.113281 182.253906 98.226562 182.28125 C 98.339844 182.308594 98.453125 182.234375 98.476562 182.121094 C 98.496094 182.042969 98.464844 181.960938 98.402344 181.910156 C 98.4375 181.902344 98.476562 181.882812 98.519531 181.847656 C 98.652344 181.730469 98.742188 181.570312 98.769531 181.386719 C 98.785156 181.257812 98.777344 181.125 98.761719 180.992188 C 98.761719 180.933594 98.75 180.875 98.75 180.816406 L 98.738281 180.570312 L 98.738281 180.5625 L 98.769531 180.394531 L 98.773438 180.394531 C 98.902344 180.375 99.019531 180.277344 99.050781 180.136719 C 99.082031 179.988281 99.015625 179.847656 98.894531 179.773438 L 98.890625 179.773438 L 98.957031 179.425781 C 99.011719 179.398438 99.046875 179.34375 99.0625 179.28125 C 99.078125 179.214844 99.0625 179.148438 99.023438 179.09375 L 99.019531 179.09375 C 99.019531 179.09375 99.285156 177.734375 99.285156 177.734375 C 99.382812 177.710938 99.464844 177.640625 99.484375 177.535156 C 99.511719 177.425781 99.46875 177.316406 99.375 177.257812 L 99.679688 175.707031 C 99.777344 175.6875 99.859375 175.613281 99.882812 175.511719 C 99.90625 175.402344 99.859375 175.292969 99.769531 175.238281 L 100.027344 173.90625 C 100.144531 173.886719 100.242188 173.800781 100.269531 173.683594 C 100.296875 173.558594 100.238281 173.429688 100.128906 173.367188 L 100.285156 172.570312 C 103.5625 172.898438 106.59375 171.9375 109.148438 170.925781 L 108.859375 171.964844 C 108.71875 171.964844 108.589844 172.070312 108.558594 172.210938 C 108.53125 172.34375 108.585938 172.476562 108.695312 172.542969 L 108.414062 173.566406 L 108.410156 173.566406 C 108.410156 173.566406 108.121094 174.09375 108.121094 174.09375 L 108.117188 174.09375 C 108.117188 174.09375 108.019531 174.285156 108.019531 174.285156 L 103.285156 182.9375 Z M 91.972656 151.09375 C 91.945312 151.261719 91.863281 151.414062 91.742188 151.519531 C 91.699219 151.558594 91.660156 151.574219 91.617188 151.566406 L 91.613281 151.566406 C 91.570312 151.554688 91.523438 151.511719 91.488281 151.445312 C 91.441406 151.34375 91.429688 151.207031 91.460938 151.070312 L 91.464844 151.054688 C 91.511719 150.882812 91.613281 150.726562 91.710938 150.574219 C 91.742188 150.53125 91.773438 150.480469 91.804688 150.4375 L 91.9375 150.21875 L 91.949219 150.511719 C 91.949219 150.570312 91.957031 150.636719 91.964844 150.699219 C 91.976562 150.832031 91.992188 150.96875 91.972656 151.09375 Z M 98.652344 180.820312 C 98.652344 180.882812 98.660156 180.941406 98.664062 181.003906 C 98.671875 181.128906 98.6875 181.257812 98.667969 181.375 C 98.648438 181.527344 98.566406 181.675781 98.453125 181.777344 C 98.414062 181.8125 98.375 181.828125 98.335938 181.820312 C 98.289062 181.804688 98.246094 181.769531 98.214844 181.707031 C 98.167969 181.609375 98.15625 181.484375 98.1875 181.351562 L 98.1875 181.335938 C 98.234375 181.171875 98.328125 181.027344 98.425781 180.886719 C 98.453125 180.839844 98.480469 180.796875 98.511719 180.753906 L 98.628906 180.5625 L 98.636719 180.546875 L 98.636719 180.5625 L 98.648438 180.816406 Z M 98.652344 180.820312 " fill-opacity="1" fill-rule="nonzero"/></g><path fill="#ffffff" d="M 65.097656 158.121094 C 65.070312 158.140625 65.042969 158.164062 65.015625 158.183594 C 65.042969 158.160156 65.070312 158.136719 65.097656 158.121094 Z M 65.097656 158.121094 " fill-opacity="1" fill-rule="nonzero"/><path fill="#ffffff" d="M 65.449219 158.636719 C 65.429688 158.648438 65.410156 158.65625 65.386719 158.667969 L 65.382812 158.667969 C 65.40625 158.65625 65.425781 158.648438 65.449219 158.636719 Z M 65.449219 158.636719 " fill-opacity="1" fill-rule="nonzero"/><path fill="#ffffff" d="M 59.703125 139.347656 C 58.765625 138.199219 57.933594 136.976562 57.109375 135.753906 C 57.984375 136.941406 58.875 138.121094 59.851562 139.21875 L 59.707031 139.347656 Z M 59.703125 139.347656 " fill-opacity="1" fill-rule="nonzero"/><path fill="#ffffff" d="M 59.109375 139.933594 C 58.65625 139.363281 58.089844 138.882812 57.5 138.441406 C 56.90625 138 56.285156 137.59375 55.691406 137.152344 C 56.304688 137.566406 56.941406 137.945312 57.554688 138.359375 C 58.167969 138.777344 58.765625 139.238281 59.253906 139.808594 L 59.105469 139.933594 Z M 59.109375 139.933594 " fill-opacity="1" fill-rule="nonzero"/><path fill="#ffffff" d="M 58.722656 140.679688 C 58.035156 140.378906 57.390625 140.015625 56.730469 139.679688 C 56.074219 139.347656 55.398438 139.03125 54.679688 138.847656 C 55.40625 139 56.101562 139.285156 56.773438 139.59375 C 57.449219 139.898438 58.109375 140.234375 58.796875 140.496094 L 58.726562 140.679688 Z M 58.722656 140.679688 " fill-opacity="1" fill-rule="nonzero"/><path fill="#ffffff" d="M 58.503906 141.480469 C 57.804688 141.25 57.070312 141.144531 56.332031 141.0625 C 55.59375 140.980469 54.84375 140.914062 54.125 140.726562 C 54.851562 140.882812 55.597656 140.914062 56.339844 140.964844 C 57.078125 141.015625 57.832031 141.089844 58.554688 141.289062 L 58.5 141.480469 Z M 58.503906 141.480469 " fill-opacity="1" fill-rule="nonzero"/><path fill="#ffffff" d="M 58.527344 142.308594 C 57.046875 142.421875 55.566406 142.59375 54.082031 142.664062 C 55.5625 142.53125 57.027344 142.292969 58.507812 142.117188 L 58.527344 142.3125 Z M 58.527344 142.308594 " fill-opacity="1" fill-rule="nonzero"/><path fill="#ffffff" d="M 58.785156 143.089844 C 58.496094 143.355469 58.144531 143.535156 57.785156 143.65625 C 57.425781 143.78125 57.054688 143.851562 56.6875 143.917969 C 56.320312 143.984375 55.949219 144.042969 55.589844 144.136719 C 55.230469 144.226562 54.875 144.355469 54.558594 144.558594 C 54.863281 144.34375 55.214844 144.199219 55.574219 144.089844 C 55.933594 143.980469 56.300781 143.90625 56.667969 143.820312 C 57.03125 143.738281 57.390625 143.652344 57.738281 143.515625 C 58.078125 143.382812 58.398438 143.199219 58.652344 142.945312 Z M 58.785156 143.089844 " fill-opacity="1" fill-rule="nonzero"/><path fill="#ffffff" d="M 59.195312 143.8125 C 58.695312 144.390625 58.042969 144.773438 57.394531 145.125 C 56.75 145.476562 56.089844 145.808594 55.527344 146.292969 C 56.066406 145.789062 56.71875 145.421875 57.347656 145.042969 C 57.972656 144.664062 58.597656 144.253906 59.039062 143.6875 L 59.191406 143.8125 Z M 59.195312 143.8125 " fill-opacity="1" fill-rule="nonzero"/><path fill="#ffffff" d="M 59.757812 144.421875 C 59.210938 144.898438 58.710938 145.433594 58.246094 146 C 57.78125 146.5625 57.351562 147.160156 56.917969 147.75 C 57.324219 147.140625 57.730469 146.527344 58.167969 145.9375 C 58.605469 145.347656 59.085938 144.785156 59.625 144.28125 L 59.757812 144.425781 Z M 59.757812 144.421875 " fill-opacity="1" fill-rule="nonzero"/><path fill="#ffffff" d="M 63.085938 160.542969 C 63.0625 160.652344 63.054688 160.761719 63.066406 160.871094 C 63.078125 160.980469 63.101562 161.089844 63.136719 161.195312 C 63.167969 161.304688 63.203125 161.410156 63.226562 161.519531 C 63.253906 161.628906 63.265625 161.742188 63.257812 161.855469 C 63.257812 161.742188 63.238281 161.632812 63.207031 161.523438 C 63.179688 161.414062 63.136719 161.3125 63.097656 161.203125 C 63.0625 161.097656 63.027344 160.988281 63.011719 160.875 C 62.992188 160.761719 62.992188 160.644531 63.015625 160.53125 L 63.085938 160.539062 Z M 63.085938 160.542969 " fill-opacity="1" fill-rule="nonzero"/><path fill="#ffffff" d="M 63.371094 160.449219 C 63.589844 160.847656 63.769531 161.265625 63.945312 161.679688 C 63.75 161.269531 63.550781 160.863281 63.3125 160.476562 L 63.375 160.449219 Z M 63.371094 160.449219 " fill-opacity="1" fill-rule="nonzero"/><path fill="#ffffff" d="M 63.632812 160.308594 C 63.738281 160.503906 63.890625 160.683594 64.054688 160.851562 C 64.222656 161.023438 64.398438 161.179688 64.566406 161.347656 C 64.390625 161.183594 64.203125 161.03125 64.027344 160.871094 C 63.855469 160.707031 63.6875 160.535156 63.570312 160.332031 L 63.636719 160.308594 Z M 63.632812 160.308594 " fill-opacity="1" fill-rule="nonzero"/><path fill="#ffffff" d="M 63.832031 160.109375 C 64.042969 160.242188 64.234375 160.390625 64.433594 160.53125 C 64.628906 160.671875 64.835938 160.804688 65.066406 160.90625 C 64.832031 160.8125 64.613281 160.683594 64.410156 160.554688 C 64.203125 160.421875 64.007812 160.277344 63.789062 160.160156 Z M 63.832031 160.109375 " fill-opacity="1" fill-rule="nonzero"/><path fill="#ffffff" d="M 63.980469 159.886719 C 64.203125 160 64.445312 160.078125 64.695312 160.148438 C 64.945312 160.21875 65.195312 160.285156 65.425781 160.386719 C 65.1875 160.296875 64.933594 160.238281 64.683594 160.179688 C 64.429688 160.117188 64.175781 160.050781 63.941406 159.945312 L 63.980469 159.890625 Z M 63.980469 159.886719 " fill-opacity="1" fill-rule="nonzero"/><path fill="#ffffff" d="M 65.621094 159.808594 C 65.621094 159.808594 65.585938 159.804688 65.570312 159.804688 C 65.0625 159.753906 64.550781 159.738281 64.035156 159.699219 L 64.046875 159.636719 C 64.554688 159.695312 65.0625 159.734375 65.570312 159.800781 C 65.585938 159.804688 65.605469 159.804688 65.621094 159.808594 Z M 65.621094 159.808594 " fill-opacity="1" fill-rule="nonzero"/><path fill="#ffffff" d="M 65.628906 159.214844 C 65.566406 159.238281 65.507812 159.253906 65.441406 159.269531 C 65.375 159.28125 65.300781 159.285156 65.234375 159.289062 C 65.097656 159.300781 64.964844 159.300781 64.832031 159.300781 C 64.699219 159.300781 64.5625 159.308594 64.433594 159.328125 C 64.300781 159.347656 64.175781 159.382812 64.0625 159.441406 L 64.027344 159.390625 C 64.152344 159.328125 64.292969 159.296875 64.429688 159.285156 C 64.566406 159.269531 64.699219 159.273438 64.832031 159.273438 C 64.964844 159.277344 65.097656 159.285156 65.234375 159.277344 C 65.304688 159.273438 65.375 159.269531 65.441406 159.257812 C 65.507812 159.25 65.566406 159.234375 65.628906 159.214844 Z M 65.628906 159.214844 " fill-opacity="1" fill-rule="nonzero"/><path fill="#ffffff" d="M 65.34375 158.683594 C 65.34375 158.683594 65.316406 158.695312 65.304688 158.699219 C 65.113281 158.78125 64.910156 158.835938 64.707031 158.898438 C 64.453125 158.972656 64.199219 159.054688 63.996094 159.195312 L 63.953125 159.152344 C 64.179688 159.007812 64.441406 158.9375 64.699219 158.871094 C 64.902344 158.820312 65.109375 158.769531 65.304688 158.695312 C 65.316406 158.691406 65.332031 158.6875 65.34375 158.683594 Z M 65.34375 158.683594 " fill-opacity="1" fill-rule="nonzero"/><path fill="#ffffff" d="M 65.449219 158.636719 C 65.429688 158.648438 65.410156 158.65625 65.386719 158.667969 C 65.371094 158.675781 65.359375 158.679688 65.34375 158.683594 C 65.355469 158.675781 65.371094 158.671875 65.382812 158.664062 C 65.40625 158.65625 65.425781 158.648438 65.449219 158.636719 Z M 65.449219 158.636719 " fill-opacity="1" fill-rule="nonzero"/><path fill="#ffffff" d="M 65.097656 158.121094 C 65.070312 158.140625 65.042969 158.164062 65.015625 158.183594 C 64.847656 158.320312 64.679688 158.457031 64.5 158.582031 C 64.292969 158.726562 64.078125 158.863281 63.84375 158.984375 L 63.8125 158.933594 C 64.046875 158.824219 64.265625 158.699219 64.480469 158.558594 C 64.660156 158.4375 64.835938 158.308594 65.015625 158.179688 C 65.042969 158.160156 65.070312 158.136719 65.097656 158.121094 Z M 65.097656 158.121094 " fill-opacity="1" fill-rule="nonzero"/><path fill="#ffffff" d="M 61.871094 159.277344 C 61.609375 159.226562 61.375 159.128906 61.144531 159.035156 C 60.914062 158.9375 60.683594 158.835938 60.425781 158.789062 C 60.683594 158.828125 60.921875 158.921875 61.160156 159.007812 C 61.398438 159.09375 61.636719 159.179688 61.886719 159.21875 L 61.867188 159.28125 Z M 61.871094 159.277344 " fill-opacity="1" fill-rule="nonzero"/><path fill="#ffffff" d="M 61.796875 159.523438 C 61.273438 159.496094 60.757812 159.4375 60.238281 159.378906 C 60.757812 159.417969 61.277344 159.457031 61.804688 159.46875 L 61.796875 159.527344 Z M 61.796875 159.523438 " fill-opacity="1" fill-rule="nonzero"/><path fill="#ffffff" d="M 61.800781 159.777344 C 61.277344 159.859375 60.757812 159.925781 60.230469 159.980469 C 60.753906 159.902344 61.269531 159.816406 61.789062 159.71875 Z M 61.800781 159.777344 " fill-opacity="1" fill-rule="nonzero"/><path fill="#ffffff" d="M 61.882812 160.019531 L 60.414062 160.558594 L 61.855469 159.964844 Z M 61.882812 160.019531 " fill-opacity="1" fill-rule="nonzero"/><path fill="#ffffff" d="M 62.023438 160.234375 C 61.898438 160.265625 61.785156 160.328125 61.683594 160.398438 C 61.578125 160.46875 61.488281 160.558594 61.398438 160.644531 C 61.308594 160.730469 61.21875 160.816406 61.109375 160.894531 C 61.007812 160.96875 60.890625 161.03125 60.761719 161.066406 C 60.886719 161.03125 61 160.960938 61.101562 160.882812 C 61.199219 160.800781 61.285156 160.710938 61.371094 160.625 C 61.460938 160.535156 61.546875 160.449219 61.648438 160.363281 C 61.75 160.285156 61.871094 160.21875 62.003906 160.179688 Z M 62.023438 160.234375 " fill-opacity="1" fill-rule="nonzero"/><path fill="#ffffff" d="M 62.246094 160.398438 C 62.070312 160.566406 61.941406 160.773438 61.796875 160.964844 C 61.648438 161.15625 61.472656 161.339844 61.257812 161.480469 C 61.46875 161.332031 61.632812 161.148438 61.765625 160.949219 C 61.902344 160.753906 62.019531 160.546875 62.191406 160.363281 L 62.246094 160.402344 Z M 62.246094 160.398438 " fill-opacity="1" fill-rule="nonzero"/><path fill="#ffffff" d="M 62.507812 160.507812 C 62.375 160.699219 62.296875 160.921875 62.21875 161.140625 C 62.175781 161.25 62.136719 161.355469 62.078125 161.460938 C 62.023438 161.566406 61.953125 161.664062 61.871094 161.753906 C 61.949219 161.664062 62.015625 161.5625 62.0625 161.457031 C 62.113281 161.351562 62.152344 161.242188 62.183594 161.132812 C 62.253906 160.914062 62.316406 160.6875 62.445312 160.480469 Z M 62.507812 160.507812 " fill-opacity="1" fill-rule="nonzero"/><path fill="#ffffff" d="M 62.792969 160.550781 C 62.769531 160.78125 62.679688 161 62.609375 161.21875 C 62.574219 161.328125 62.542969 161.4375 62.53125 161.550781 C 62.519531 161.664062 62.523438 161.777344 62.546875 161.886719 C 62.515625 161.777344 62.507812 161.664062 62.511719 161.550781 C 62.519531 161.4375 62.542969 161.324219 62.574219 161.214844 C 62.628906 160.992188 62.710938 160.773438 62.722656 160.550781 Z M 62.792969 160.550781 " fill-opacity="1" fill-rule="nonzero"/><path fill="#ffffff" d="M 110.824219 135.550781 L 110.796875 135.804688 L 110.042969 135.730469 L 110.097656 135.183594 Z M 110.824219 135.550781 " fill-opacity="1" fill-rule="nonzero"/><path fill="#ffffff" d="M 85.519531 142.609375 C 85.453125 142.824219 85.371094 143.019531 85.222656 143.183594 C 85.316406 142.992188 85.414062 142.800781 85.519531 142.609375 Z M 85.519531 142.609375 " fill-opacity="1" fill-rule="nonzero"/><path fill="#ffffff" d="M 110.824219 135.550781 L 110.796875 135.804688 L 110.042969 135.730469 L 110.097656 135.183594 Z M 110.824219 135.550781 " fill-opacity="1" fill-rule="nonzero"/><path fill="#ffffff" d="M 65.628906 159.214844 C 65.566406 159.238281 65.507812 159.253906 65.441406 159.269531 L 65.441406 159.257812 C 65.507812 159.25 65.566406 159.234375 65.628906 159.214844 Z M 65.628906 159.214844 " fill-opacity="1" fill-rule="nonzero"/><path fill="#ffffff" d="M 65.621094 159.808594 C 65.621094 159.808594 65.585938 159.804688 65.570312 159.804688 C 65.570312 159.804688 65.605469 159.804688 65.621094 159.808594 Z M 65.621094 159.808594 " fill-opacity="1" fill-rule="nonzero"/><path fill="#ffffff" d="M 65.449219 158.636719 C 65.429688 158.648438 65.410156 158.65625 65.386719 158.667969 C 65.371094 158.675781 65.359375 158.679688 65.34375 158.683594 C 65.332031 158.691406 65.316406 158.695312 65.304688 158.699219 C 65.292969 158.636719 65.28125 158.589844 65.269531 158.535156 L 65.382812 158.664062 C 65.40625 158.65625 65.425781 158.648438 65.449219 158.636719 Z M 65.449219 158.636719 " fill-opacity="1" fill-rule="nonzero"/><path fill="#ffffff" d="M 114.167969 148 C 114.167969 148 114.175781 148 114.175781 147.996094 L 114.167969 147.996094 Z M 114.167969 148 " fill-opacity="1" fill-rule="nonzero"/><path fill="#ffffff" d="M 112.472656 156.433594 C 112.4375 156.425781 112.402344 156.425781 112.371094 156.433594 L 112.347656 156.542969 L 112.308594 156.730469 L 112.289062 156.839844 L 112.0625 157.949219 L 112.027344 157.917969 C 111.957031 158.019531 111.355469 158.917969 111.53125 159.371094 C 111.585938 159.527344 111.691406 159.636719 111.8125 159.660156 C 111.847656 159.667969 111.878906 159.667969 111.917969 159.664062 C 112.132812 159.644531 112.316406 159.417969 112.371094 159.101562 C 112.453125 158.636719 112.292969 158.074219 112.257812 157.949219 L 112.472656 156.875 L 112.496094 156.765625 L 112.53125 156.582031 L 112.554688 156.472656 C 112.527344 156.453125 112.503906 156.441406 112.472656 156.433594 Z M 112.1875 159.066406 C 112.144531 159.324219 112.007812 159.46875 111.898438 159.480469 C 111.792969 159.492188 111.730469 159.375 111.703125 159.304688 C 111.601562 159.035156 111.917969 158.441406 112.113281 158.128906 C 112.164062 158.34375 112.246094 158.742188 112.1875 159.066406 Z M 112.1875 159.066406 " fill-opacity="1" fill-rule="nonzero"/><path fill="#ffffff" d="M 114.175781 147.996094 C 114.175781 147.996094 114.171875 148.003906 114.167969 148 L 114.175781 148 Z M 114.175781 147.996094 " fill-opacity="1" fill-rule="nonzero"/><path fill="#ffffff" d="M 107.882812 176.105469 L 107.875 176.136719 L 107.871094 176.132812 Z M 107.882812 176.105469 " fill-opacity="1" fill-rule="nonzero"/><path fill="#ffffff" d="M 98.640625 180.5625 L 98.628906 180.5625 L 98.636719 180.546875 Z M 98.640625 180.5625 " fill-opacity="1" fill-rule="nonzero"/><path fill="#ffffff" d="M 106.9375 180.410156 C 106.917969 180.515625 106.808594 180.578125 106.703125 180.558594 C 106.597656 180.535156 106.53125 180.429688 106.554688 180.324219 C 106.578125 180.214844 106.6875 180.148438 106.792969 180.171875 C 106.898438 180.195312 106.964844 180.300781 106.9375 180.410156 Z M 106.9375 180.410156 " fill-opacity="1" fill-rule="nonzero"/><path fill="#ffffff" d="M 114.167969 148 C 114.167969 148 114.175781 148 114.175781 147.996094 L 114.167969 147.996094 Z M 114.167969 148 " fill-opacity="1" fill-rule="nonzero"/><path fill="#ffffff" d="M 112.554688 156.652344 C 112.554688 156.742188 112.511719 156.785156 112.421875 156.785156 C 112.335938 156.785156 112.289062 156.742188 112.289062 156.652344 C 112.289062 156.566406 112.335938 156.519531 112.421875 156.519531 C 112.511719 156.519531 112.554688 156.566406 112.554688 156.652344 Z M 112.554688 156.652344 " fill-opacity="1" fill-rule="nonzero"/><path fill="#ffffff" d="M 112.554688 156.472656 C 112.527344 156.453125 112.503906 156.441406 112.472656 156.433594 C 112.4375 156.425781 112.402344 156.425781 112.371094 156.433594 C 112.285156 156.453125 112.21875 156.515625 112.199219 156.605469 C 112.175781 156.699219 112.21875 156.789062 112.289062 156.839844 C 112.3125 156.855469 112.339844 156.867188 112.375 156.875 C 112.40625 156.882812 112.441406 156.882812 112.472656 156.875 C 112.554688 156.855469 112.621094 156.792969 112.640625 156.707031 C 112.664062 156.613281 112.625 156.523438 112.554688 156.472656 Z M 112.382812 156.644531 C 112.382812 156.644531 112.40625 156.613281 112.429688 156.613281 C 112.453125 156.617188 112.464844 156.640625 112.460938 156.664062 C 112.449219 156.707031 112.375 156.6875 112.382812 156.644531 Z M 112.382812 156.644531 " fill-opacity="1" fill-rule="nonzero"/><path fill="#ffffff" d="M 111.960938 160.113281 C 111.960938 160.234375 111.902344 160.292969 111.785156 160.292969 C 111.664062 160.292969 111.605469 160.234375 111.605469 160.113281 C 111.605469 159.996094 111.664062 159.9375 111.785156 159.9375 C 111.902344 159.9375 111.960938 159.996094 111.960938 160.113281 Z M 111.960938 160.113281 " fill-opacity="1" fill-rule="nonzero"/><path fill="#ffffff" d="M 111.839844 159.855469 C 111.695312 159.820312 111.554688 159.910156 111.519531 160.058594 C 111.484375 160.203125 111.578125 160.34375 111.722656 160.378906 C 111.867188 160.410156 112.015625 160.320312 112.042969 160.175781 C 112.078125 160.03125 111.988281 159.882812 111.839844 159.855469 Z M 111.703125 160.097656 C 111.710938 160.054688 111.757812 160.027344 111.800781 160.035156 C 111.84375 160.046875 111.871094 160.089844 111.863281 160.132812 C 111.851562 160.179688 111.808594 160.207031 111.765625 160.195312 C 111.71875 160.1875 111.691406 160.140625 111.703125 160.097656 Z M 111.703125 160.097656 " fill-opacity="1" fill-rule="nonzero"/><path fill="#ffffff" d="M 101.664062 164.074219 C 101.636719 164.183594 101.527344 164.257812 101.414062 164.230469 C 101.304688 164.207031 101.230469 164.09375 101.257812 163.984375 C 101.28125 163.871094 101.394531 163.804688 101.503906 163.824219 C 101.617188 163.851562 101.6875 163.960938 101.664062 164.074219 Z M 101.664062 164.074219 " fill-opacity="1" fill-rule="nonzero"/><path fill="#ffffff" d="M 91.746094 151.925781 C 91.722656 152.042969 91.605469 152.113281 91.492188 152.085938 C 91.375 152.0625 91.304688 151.949219 91.332031 151.835938 C 91.355469 151.71875 91.46875 151.644531 91.585938 151.671875 C 91.699219 151.699219 91.773438 151.8125 91.746094 151.925781 Z M 91.746094 151.925781 " fill-opacity="1" fill-rule="nonzero"/><g transform="matrix(1, 0, 0, 1, 25, 167)"><g clip-path="url(#f83203203b)"><g fill="#ffffff" fill-opacity="1"><g transform="translate(3.081953, 88.755346)"><g><path d="M 92.5 -15.640625 C 92.09375 -17.972656 91.816406 -19.894531 91.671875 -21.40625 C 91.535156 -22.914062 91.46875 -24.472656 91.46875 -26.078125 C 91.46875 -27.691406 91.742188 -28.601562 92.296875 -28.8125 C 92.367188 -28.8125 92.472656 -28.8125 92.609375 -28.8125 C 94.660156 -28.8125 98.460938 -30.21875 104.015625 -33.03125 C 109.578125 -35.84375 115.90625 -39.628906 123 -44.390625 C 130.101562 -49.160156 137.515625 -55.265625 145.234375 -62.703125 C 152.953125 -70.148438 159.316406 -77.679688 164.328125 -85.296875 C 165.210938 -86.597656 165.96875 -87.25 166.59375 -87.25 C 166.789062 -87.25 167.007812 -87.144531 167.25 -86.9375 C 167.488281 -86.738281 167.609375 -86.394531 167.609375 -85.90625 C 167.609375 -85.425781 167.367188 -84.773438 166.890625 -83.953125 C 159.078125 -70.992188 148.066406 -58.800781 133.859375 -47.375 C 119.660156 -35.957031 107.796875 -29.050781 98.265625 -26.65625 C 98.128906 -26.445312 98.0625 -26.015625 98.0625 -25.359375 C 98.0625 -24.710938 98.128906 -23.632812 98.265625 -22.125 C 98.398438 -20.613281 99.066406 -17.710938 100.265625 -13.421875 C 101.472656 -9.140625 102.863281 -5.179688 104.4375 -1.546875 C 109.101562 9.148438 115.242188 14.5 122.859375 14.5 C 127.242188 14.5 131.441406 13.570312 135.453125 11.71875 C 139.472656 9.875 142.375 7.203125 144.15625 3.703125 C 144.570312 2.742188 145.085938 2.265625 145.703125 2.265625 C 146.316406 2.265625 146.25 3.019531 145.5 4.53125 C 143.644531 8.300781 140.398438 11.644531 135.765625 14.5625 C 131.140625 17.476562 126.390625 18.9375 121.515625 18.9375 C 116.648438 18.9375 112.054688 17.148438 107.734375 13.578125 C 100.191406 7.410156 95.113281 -2.328125 92.5 -15.640625 Z M 106.296875 -74.078125 C 107.046875 -75.378906 108.191406 -76.972656 109.734375 -78.859375 C 111.273438 -80.742188 112.613281 -81.84375 113.75 -82.15625 C 114.882812 -82.46875 115.984375 -82.625 117.046875 -82.625 C 118.109375 -82.625 118.910156 -82.175781 119.453125 -81.28125 C 120.003906 -80.394531 120.28125 -79.503906 120.28125 -78.609375 C 120.28125 -77.710938 119.628906 -76.679688 118.328125 -75.515625 C 116.128906 -73.523438 112.664062 -72.289062 107.9375 -71.8125 C 104.03125 -64.75 99.535156 -53.398438 94.453125 -37.765625 C 92.609375 -32.066406 90.125 -26.007812 87 -19.59375 C 83.875 -13.1875 80.53125 -7.582031 76.96875 -2.78125 C 73.40625 2.019531 68.691406 6.253906 62.828125 9.921875 C 56.960938 13.597656 50.320312 15.984375 42.90625 17.078125 C 40.507812 17.421875 37.851562 17.59375 34.9375 17.59375 C 32.019531 17.59375 28.847656 17.21875 25.421875 16.46875 C 12.867188 13.582031 4.773438 7.40625 1.140625 -2.0625 C 0.0351562 -4.9375 -0.515625 -7.796875 -0.515625 -10.640625 C -0.515625 -13.492188 -0.117188 -16.425781 0.671875 -19.4375 C 1.460938 -22.457031 3.175781 -25.148438 5.8125 -27.515625 C 8.457031 -29.890625 10.640625 -31.175781 12.359375 -31.375 C 13.242188 -31.519531 13.6875 -31.316406 13.6875 -30.765625 C 13.6875 -30.421875 13.484375 -30.144531 13.078125 -29.9375 C 11.429688 -29.1875 9.441406 -27.40625 7.109375 -24.59375 C 4.085938 -20.882812 2.578125 -16.285156 2.578125 -10.796875 C 2.578125 -5.171875 4.289062 -0.613281 7.71875 2.875 C 11.90625 7.269531 16.847656 10.015625 22.546875 11.109375 C 26.453125 11.867188 29.671875 12.25 32.203125 12.25 C 34.742188 12.25 36.976562 11.972656 38.90625 11.421875 C 44.53125 10.117188 49.789062 8.078125 54.6875 5.296875 C 59.59375 2.515625 63.707031 -0.429688 67.03125 -3.546875 C 70.363281 -6.671875 73.554688 -10.410156 76.609375 -14.765625 C 79.660156 -19.117188 82.0625 -22.941406 83.8125 -26.234375 C 85.5625 -29.523438 88.664062 -36.210938 93.125 -46.296875 C 97.582031 -56.378906 101.492188 -64.816406 104.859375 -71.609375 C 103.828125 -71.472656 100.875 -71.195312 96 -70.78125 C 87.019531 -70.03125 80.023438 -68.9375 75.015625 -67.5 C 65.617188 -64.894531 58.929688 -59.882812 54.953125 -52.46875 C 53.023438 -48.90625 52.0625 -45.441406 52.0625 -42.078125 C 52.0625 -40.296875 52.335938 -38.546875 52.890625 -36.828125 C 54.398438 -32.234375 57.382812 -29.9375 61.84375 -29.9375 C 67.46875 -29.9375 71.410156 -32.851562 73.671875 -38.6875 C 74.773438 -41.5 75.328125 -43.832031 75.328125 -45.6875 C 75.328125 -47.539062 75.253906 -48.84375 75.109375 -49.59375 C 74.972656 -50.34375 75.078125 -50.71875 75.421875 -50.71875 C 75.972656 -50.582031 76.453125 -50.140625 76.859375 -49.390625 C 77.484375 -47.953125 77.796875 -46.253906 77.796875 -44.296875 C 77.796875 -42.335938 77.144531 -40.09375 75.84375 -37.5625 C 73.78125 -33.238281 70.894531 -30.390625 67.1875 -29.015625 C 64.925781 -28.191406 62.800781 -27.78125 60.8125 -27.78125 C 57.382812 -27.78125 54.300781 -29.015625 51.5625 -31.484375 C 47.851562 -34.773438 46 -39.0625 46 -44.34375 C 46 -51.820312 49.5 -58.097656 56.5 -63.171875 C 62.945312 -67.972656 72.273438 -71.023438 84.484375 -72.328125 C 88.179688 -72.742188 92.414062 -73.101562 97.1875 -73.40625 C 101.957031 -73.71875 104.992188 -73.941406 106.296875 -74.078125 Z M 117.09375 -78.609375 C 117.09375 -79.359375 116.785156 -79.734375 116.171875 -79.734375 C 115.410156 -79.734375 114.632812 -79.40625 113.84375 -78.75 C 113.0625 -78.101562 111.710938 -76.648438 109.796875 -74.390625 C 111.785156 -74.660156 113.289062 -75.070312 114.3125 -75.625 C 116.164062 -76.519531 117.09375 -77.515625 117.09375 -78.609375 Z M 117.09375 -78.609375 "/></g></g></g><g fill="#ffffff" fill-opacity="1"><g transform="translate(120.773228, 88.755346)"><g><path d="M 24.59375 -36.015625 C 29.601562 -36.015625 32.109375 -32.859375 32.109375 -26.546875 C 32.109375 -23.660156 31.351562 -20.570312 29.84375 -17.28125 C 27.914062 -12.820312 25.035156 -8.773438 21.203125 -5.140625 C 22.085938 -3.429688 23.695312 -2.578125 26.03125 -2.578125 C 27.882812 -2.578125 29.632812 -3.5 31.28125 -5.34375 C 33.332031 -7.476562 34.804688 -9.347656 35.703125 -10.953125 C 36.597656 -12.566406 37.25 -13.75 37.65625 -14.5 C 38.070312 -15.257812 38.601562 -16.34375 39.25 -17.75 C 39.90625 -19.15625 40.300781 -20.007812 40.4375 -20.3125 C 40.570312 -20.625 40.8125 -20.78125 41.15625 -20.78125 C 41.84375 -20.851562 42.1875 -20.613281 42.1875 -20.0625 C 42.1875 -19.851562 42.117188 -19.613281 41.984375 -19.34375 L 41.359375 -17.90625 C 40.953125 -16.945312 40.644531 -16.257812 40.4375 -15.84375 C 40.226562 -15.4375 39.863281 -14.695312 39.34375 -13.625 C 38.832031 -12.5625 38.390625 -11.722656 38.015625 -11.109375 C 37.640625 -10.492188 37.125 -9.671875 36.46875 -8.640625 C 35.820312 -7.609375 35.238281 -6.785156 34.71875 -6.171875 C 34.207031 -5.554688 33.570312 -4.867188 32.8125 -4.109375 C 32.0625 -3.359375 31.34375 -2.773438 30.65625 -2.359375 C 28.945312 -1.335938 27.335938 -0.828125 25.828125 -0.828125 C 23.015625 -0.828125 20.816406 -1.71875 19.234375 -3.5 C 16.078125 -1.164062 13.164062 0 10.5 0 C 5.488281 0 2.984375 -3.15625 2.984375 -9.46875 C 2.984375 -12.34375 3.738281 -15.425781 5.25 -18.71875 C 7.300781 -23.519531 10.195312 -27.601562 13.9375 -30.96875 C 17.675781 -34.332031 21.226562 -36.015625 24.59375 -36.015625 Z M 25.71875 -32.828125 C 23.863281 -32.828125 21.664062 -31.585938 19.125 -29.109375 C 16.59375 -26.640625 14.332031 -23.28125 12.34375 -19.03125 C 9.945312 -14.09375 8.75 -10.046875 8.75 -6.890625 C 8.75 -3.734375 9.945312 -2.15625 12.34375 -2.15625 C 14.0625 -2.15625 15.984375 -3.082031 18.109375 -4.9375 C 17.015625 -6.519531 16.46875 -8.203125 16.46875 -9.984375 C 16.601562 -12.929688 17.800781 -14.40625 20.0625 -14.40625 C 20.957031 -14.40625 21.695312 -14.09375 22.28125 -13.46875 C 22.863281 -12.851562 23.15625 -12.289062 23.15625 -11.78125 C 23.15625 -11.269531 23.082031 -10.738281 22.9375 -10.1875 C 24.101562 -11.90625 25.441406 -14.335938 26.953125 -17.484375 C 28.671875 -20.984375 29.53125 -24.414062 29.53125 -27.78125 C 29.53125 -31.144531 28.257812 -32.828125 25.71875 -32.828125 Z M 25.71875 -32.828125 "/></g></g></g><g fill="#ffffff" fill-opacity="1"><g transform="translate(155.237024, 88.755346)"><g><path d="M 54.53125 -33.75 C 46.164062 -18.863281 41.984375 -9.257812 41.984375 -4.9375 C 41.984375 -3.019531 42.632812 -2.0625 43.9375 -2.0625 C 45.582031 -2.0625 47.46875 -3.296875 49.59375 -5.765625 C 52.8125 -9.671875 55.625 -14.367188 58.03125 -19.859375 C 58.4375 -20.816406 58.84375 -21.191406 59.25 -20.984375 C 59.664062 -20.785156 59.875 -20.515625 59.875 -20.171875 C 59.875 -19.828125 59.53125 -18.96875 58.84375 -17.59375 C 58.164062 -16.21875 57.617188 -15.117188 57.203125 -14.296875 C 56.796875 -13.472656 55.890625 -11.894531 54.484375 -9.5625 C 53.078125 -7.238281 51.875 -5.523438 50.875 -4.421875 C 49.882812 -3.328125 48.613281 -2.25 47.0625 -1.1875 C 45.519531 -0.125 43.769531 0.40625 41.8125 0.40625 C 39.863281 0.40625 38.203125 -0.550781 36.828125 -2.46875 C 36.210938 -3.363281 35.90625 -4.582031 35.90625 -6.125 C 35.90625 -7.664062 36.25 -9.53125 36.9375 -11.71875 C 37.625 -13.914062 39.507812 -17.488281 42.59375 -22.4375 C 43.351562 -23.664062 43.734375 -24.640625 43.734375 -25.359375 C 43.734375 -26.078125 43.164062 -26.4375 42.03125 -26.4375 C 40.894531 -26.4375 38.851562 -25.066406 35.90625 -22.328125 C 32.957031 -19.585938 29.851562 -15.882812 26.59375 -11.21875 C 23.332031 -6.550781 21.394531 -2.8125 20.78125 0 C 19.613281 0 18.753906 -0.476562 18.203125 -1.4375 C 17.660156 -2.394531 17.390625 -3.21875 17.390625 -3.90625 C 17.390625 -6.71875 19.273438 -12.066406 23.046875 -19.953125 C 24.285156 -22.566406 24.9375 -24.335938 25 -25.265625 C 25.070312 -26.191406 24.953125 -26.671875 24.640625 -26.703125 C 24.328125 -26.734375 23.898438 -26.613281 23.359375 -26.34375 C 22.117188 -25.71875 20.234375 -24.207031 17.703125 -21.8125 C 12.898438 -17.425781 8.164062 -10.738281 3.5 -1.75 C 3.15625 -1 2.722656 -0.535156 2.203125 -0.359375 C 1.691406 -0.191406 0.679688 -0.0703125 -0.828125 0 C -2.335938 0.0703125 -3.332031 0.242188 -3.8125 0.515625 C -2.570312 -1.890625 -0.410156 -6.382812 2.671875 -12.96875 C 8.234375 -24.757812 11.9375 -31.550781 13.78125 -33.34375 C 14.601562 -34.164062 15.738281 -34.578125 17.1875 -34.578125 C 17.457031 -34.578125 18.15625 -34.472656 19.28125 -34.265625 C 20.414062 -34.054688 21.257812 -34.019531 21.8125 -34.15625 C 19.269531 -32.789062 15.117188 -26.34375 9.359375 -14.8125 C 12.585938 -18.789062 14.90625 -21.394531 16.3125 -22.625 C 17.71875 -23.863281 18.757812 -24.789062 19.4375 -25.40625 C 20.125 -26.03125 20.65625 -26.515625 21.03125 -26.859375 C 21.414062 -27.203125 21.96875 -27.695312 22.6875 -28.34375 C 23.40625 -29 23.953125 -29.476562 24.328125 -29.78125 C 24.710938 -30.09375 25.242188 -30.519531 25.921875 -31.0625 C 26.609375 -31.613281 27.140625 -31.972656 27.515625 -32.140625 C 27.898438 -32.316406 28.414062 -32.609375 29.0625 -33.015625 C 29.71875 -33.429688 30.195312 -33.640625 30.5 -33.640625 C 30.8125 -33.640625 31.238281 -33.722656 31.78125 -33.890625 C 32.332031 -34.066406 32.710938 -34.019531 32.921875 -33.75 C 34.296875 -33.195312 34.984375 -32.335938 34.984375 -31.171875 C 34.984375 -30.140625 33.816406 -27.5 31.484375 -23.25 C 29.148438 -19 27.640625 -16.1875 26.953125 -14.8125 C 29.972656 -18.582031 32.851562 -21.6875 35.59375 -24.125 C 38.34375 -26.5625 41.585938 -28.804688 45.328125 -30.859375 C 49.066406 -32.921875 51.789062 -33.953125 53.5 -33.953125 C 53.914062 -33.953125 54.257812 -33.882812 54.53125 -33.75 Z M 54.53125 -33.75 "/></g></g></g><g fill="#ffffff" fill-opacity="1"><g transform="translate(207.395652, 88.755346)"><g><path d="M 24.59375 -36.015625 C 29.601562 -36.015625 32.109375 -32.859375 32.109375 -26.546875 C 32.109375 -23.660156 31.351562 -20.570312 29.84375 -17.28125 C 27.914062 -12.820312 25.035156 -8.773438 21.203125 -5.140625 C 22.085938 -3.429688 23.695312 -2.578125 26.03125 -2.578125 C 27.882812 -2.578125 29.632812 -3.5 31.28125 -5.34375 C 33.332031 -7.476562 34.804688 -9.347656 35.703125 -10.953125 C 36.597656 -12.566406 37.25 -13.75 37.65625 -14.5 C 38.070312 -15.257812 38.601562 -16.34375 39.25 -17.75 C 39.90625 -19.15625 40.300781 -20.007812 40.4375 -20.3125 C 40.570312 -20.625 40.8125 -20.78125 41.15625 -20.78125 C 41.84375 -20.851562 42.1875 -20.613281 42.1875 -20.0625 C 42.1875 -19.851562 42.117188 -19.613281 41.984375 -19.34375 L 41.359375 -17.90625 C 40.953125 -16.945312 40.644531 -16.257812 40.4375 -15.84375 C 40.226562 -15.4375 39.863281 -14.695312 39.34375 -13.625 C 38.832031 -12.5625 38.390625 -11.722656 38.015625 -11.109375 C 37.640625 -10.492188 37.125 -9.671875 36.46875 -8.640625 C 35.820312 -7.609375 35.238281 -6.785156 34.71875 -6.171875 C 34.207031 -5.554688 33.570312 -4.867188 32.8125 -4.109375 C 32.0625 -3.359375 31.34375 -2.773438 30.65625 -2.359375 C 28.945312 -1.335938 27.335938 -0.828125 25.828125 -0.828125 C 23.015625 -0.828125 20.816406 -1.71875 19.234375 -3.5 C 16.078125 -1.164062 13.164062 0 10.5 0 C 5.488281 0 2.984375 -3.15625 2.984375 -9.46875 C 2.984375 -12.34375 3.738281 -15.425781 5.25 -18.71875 C 7.300781 -23.519531 10.195312 -27.601562 13.9375 -30.96875 C 17.675781 -34.332031 21.226562 -36.015625 24.59375 -36.015625 Z M 25.71875 -32.828125 C 23.863281 -32.828125 21.664062 -31.585938 19.125 -29.109375 C 16.59375 -26.640625 14.332031 -23.28125 12.34375 -19.03125 C 9.945312 -14.09375 8.75 -10.046875 8.75 -6.890625 C 8.75 -3.734375 9.945312 -2.15625 12.34375 -2.15625 C 14.0625 -2.15625 15.984375 -3.082031 18.109375 -4.9375 C 17.015625 -6.519531 16.46875 -8.203125 16.46875 -9.984375 C 16.601562 -12.929688 17.800781 -14.40625 20.0625 -14.40625 C 20.957031 -14.40625 21.695312 -14.09375 22.28125 -13.46875 C 22.863281 -12.851562 23.15625 -12.289062 23.15625 -11.78125 C 23.15625 -11.269531 23.082031 -10.738281 22.9375 -10.1875 C 24.101562 -11.90625 25.441406 -14.335938 26.953125 -17.484375 C 28.671875 -20.984375 29.53125 -24.414062 29.53125 -27.78125 C 29.53125 -31.144531 28.257812 -32.828125 25.71875 -32.828125 Z M 25.71875 -32.828125 "/></g></g></g><g fill="#ffffff" fill-opacity="1"><g transform="translate(241.859448, 88.755346)"><g><path d="M 19.765625 -41.265625 C 19.765625 -38.171875 17.804688 -35.253906 13.890625 -32.515625 C 15.265625 -32.441406 17.097656 -32.40625 19.390625 -32.40625 C 21.691406 -32.40625 24.59375 -32.578125 28.09375 -32.921875 C 28.226562 -32.710938 28.296875 -32.160156 28.296875 -31.265625 C 28.296875 -30.378906 27.882812 -29.0625 27.0625 -27.3125 C 26.238281 -25.5625 25.5 -24.050781 24.84375 -22.78125 C 24.195312 -21.519531 23.582031 -20.320312 23 -19.1875 C 22.414062 -18.050781 21.765625 -16.660156 21.046875 -15.015625 C 20.328125 -13.367188 19.726562 -11.863281 19.25 -10.5 C 17.53125 -5.28125 17.800781 -2.671875 20.0625 -2.671875 C 22.945312 -2.671875 27.203125 -8.398438 32.828125 -19.859375 C 33.304688 -20.753906 33.695312 -21.097656 34 -20.890625 C 34.3125 -20.679688 34.46875 -20.421875 34.46875 -20.109375 C 34.46875 -19.804688 34.019531 -18.742188 33.125 -16.921875 C 32.238281 -15.109375 31.28125 -13.238281 30.25 -11.3125 C 29.226562 -9.394531 27.617188 -7.164062 25.421875 -4.625 C 22.816406 -1.46875 20.3125 0.109375 17.90625 0.109375 C 15.226562 0.109375 13.378906 -1.503906 12.359375 -4.734375 C 12.148438 -5.347656 12.046875 -6.269531 12.046875 -7.5 C 12.046875 -8.738281 12.4375 -10.382812 13.21875 -12.4375 C 14.007812 -14.5 15.265625 -17.003906 16.984375 -19.953125 C 18.703125 -22.910156 19.660156 -24.644531 19.859375 -25.15625 C 20.066406 -25.664062 20.171875 -26.164062 20.171875 -26.65625 C 20.171875 -28.78125 17.425781 -29.910156 11.9375 -30.046875 L 10.703125 -26.75 C 6.378906 -15.4375 2.226562 -7.859375 -1.75 -4.015625 C -2.425781 -3.398438 -2.765625 -3.601562 -2.765625 -4.625 C -2.765625 -4.832031 -2.695312 -5.070312 -2.5625 -5.34375 C 1.28125 -10.425781 4.609375 -16.429688 7.421875 -23.359375 C 10.234375 -30.285156 12.1875 -36.867188 13.28125 -43.109375 C 13.6875 -45.234375 14.644531 -46.296875 16.15625 -46.296875 C 17.664062 -46.296875 18.765625 -45.335938 19.453125 -43.421875 C 19.660156 -42.804688 19.765625 -42.085938 19.765625 -41.265625 Z M 19.765625 -41.265625 "/></g></g></g><g fill="#ffffff" fill-opacity="1"><g transform="translate(268.607461, 88.755346)"><g><path d="M 37.140625 -27.890625 C 35.910156 -26.648438 34.160156 -23.851562 31.890625 -19.5 C 29.628906 -15.144531 28.273438 -11.882812 27.828125 -9.71875 C 27.378906 -7.5625 27.15625 -5.8125 27.15625 -4.46875 C 27.15625 -3.132812 27.671875 -2.46875 28.703125 -2.46875 C 30.003906 -2.46875 31.617188 -3.671875 33.546875 -6.078125 C 36.359375 -9.566406 39.132812 -14.125 41.875 -19.75 C 42.144531 -20.375 42.453125 -20.71875 42.796875 -20.78125 C 43.347656 -20.988281 43.625 -20.785156 43.625 -20.171875 C 43.625 -19.828125 43.519531 -19.414062 43.3125 -18.9375 C 37 -6.175781 31.6875 0.203125 27.375 0.203125 C 25.382812 0.203125 23.769531 -0.753906 22.53125 -2.671875 C 21.914062 -3.703125 21.609375 -5.070312 21.609375 -6.78125 C 21.609375 -8.5 21.953125 -10.59375 22.640625 -13.0625 C 17.148438 -4.21875 12.414062 0.203125 8.4375 0.203125 C 7.34375 0.203125 6.347656 -0.140625 5.453125 -0.828125 C 3.390625 -2.265625 2.359375 -4.734375 2.359375 -8.234375 C 2.359375 -14.953125 5.273438 -21.773438 11.109375 -28.703125 C 14.398438 -32.546875 18.445312 -35.050781 23.25 -36.21875 C 24.550781 -36.5625 25.785156 -36.734375 26.953125 -36.734375 C 30.109375 -36.734375 32.785156 -35.632812 34.984375 -33.4375 C 35.671875 -32.6875 35.875 -31.96875 35.59375 -31.28125 C 35.320312 -30.59375 34.738281 -30.316406 33.84375 -30.453125 C 33.09375 -32.921875 31.445312 -34.15625 28.90625 -34.15625 C 25.957031 -34.15625 22.320312 -31.820312 18 -27.15625 C 15.53125 -24.414062 13.234375 -21.191406 11.109375 -17.484375 C 8.429688 -13.023438 7.09375 -9.457031 7.09375 -6.78125 C 7.09375 -4.113281 7.953125 -2.78125 9.671875 -2.78125 C 13.785156 -2.78125 19.171875 -9.085938 25.828125 -21.703125 C 27.128906 -24.242188 28.222656 -25.976562 29.109375 -26.90625 C 30.003906 -27.832031 31.140625 -28.296875 32.515625 -28.296875 C 32.785156 -28.296875 33.488281 -28.191406 34.625 -27.984375 C 35.757812 -27.773438 36.597656 -27.742188 37.140625 -27.890625 Z M 37.140625 -27.890625 "/></g></g></g><g fill="#ffffff" fill-opacity="1"><g transform="translate(304.614397, 88.755346)"><g><path d="M 16.296875 -4.78125 C 15.304688 -3.65625 14.054688 -2.578125 12.546875 -1.546875 C 11.046875 -0.515625 9.332031 0 7.40625 0 C 5.488281 0 3.945312 -0.753906 2.78125 -2.265625 C 1.613281 -3.773438 1.03125 -5.539062 1.03125 -7.5625 C 1.03125 -9.582031 1.546875 -11.519531 2.578125 -13.375 L 11.53125 -30.453125 C 12.832031 -32.992188 13.6875 -34.453125 14.09375 -34.828125 C 14.507812 -35.203125 15.503906 -35.390625 17.078125 -35.390625 L 22.328125 -35.390625 C 22.191406 -35.253906 21.847656 -34.984375 21.296875 -34.578125 C 20.066406 -33.753906 19.140625 -32.789062 18.515625 -31.6875 C 13.234375 -23.113281 9.664062 -16.460938 7.8125 -11.734375 C 6.582031 -9.054688 5.96875 -6.859375 5.96875 -5.140625 C 5.96875 -3.222656 7.066406 -2.265625 9.265625 -2.265625 L 13.265625 -4.21875 C 16.015625 -6.894531 19.238281 -12.070312 22.9375 -19.75 C 23.488281 -20.78125 23.96875 -21.109375 24.375 -20.734375 C 24.789062 -20.359375 24.640625 -19.429688 23.921875 -17.953125 C 23.203125 -16.484375 22.632812 -15.332031 22.21875 -14.5 C 21.8125 -13.675781 20.972656 -12.132812 19.703125 -9.875 C 18.429688 -7.613281 17.296875 -5.914062 16.296875 -4.78125 Z M 27.625 -47.53125 C 28.625 -47.53125 29.445312 -47.222656 30.09375 -46.609375 C 30.75 -45.992188 31.078125 -45.1875 31.078125 -44.1875 C 31.078125 -43.195312 30.765625 -42.375 30.140625 -41.71875 C 29.523438 -41.070312 28.71875 -40.75 27.71875 -40.75 C 26.726562 -40.75 25.90625 -41.054688 25.25 -41.671875 C 24.601562 -42.285156 24.28125 -43.085938 24.28125 -44.078125 C 24.28125 -45.078125 24.585938 -45.898438 25.203125 -46.546875 C 25.828125 -47.203125 26.632812 -47.53125 27.625 -47.53125 Z M 14.34375 -47.53125 C 15.34375 -47.53125 16.164062 -47.222656 16.8125 -46.609375 C 17.46875 -45.992188 17.796875 -45.1875 17.796875 -44.1875 C 17.796875 -43.195312 17.488281 -42.375 16.875 -41.71875 C 16.257812 -41.070312 15.453125 -40.75 14.453125 -40.75 C 13.460938 -40.75 12.640625 -41.054688 11.984375 -41.671875 C 11.335938 -42.285156 11.015625 -43.085938 11.015625 -44.078125 C 11.015625 -45.078125 11.320312 -45.898438 11.9375 -46.546875 C 12.550781 -47.203125 13.351562 -47.53125 14.34375 -47.53125 Z M 14.34375 -47.53125 "/></g></g></g></g></g></svg>